<svg width="27" height="26" viewBox="0 0 27 26" fill="none" xmlns="http://www.w3.org/2000/svg">
<path d="M5.87833 11.2858C7.91833 15.295 11.205 18.5675 15.2142 20.6217L18.3308 17.505C18.7133 17.1225 19.28 16.995 19.7758 17.165C21.3625 17.6892 23.0767 17.9725 24.8333 17.9725C25.6125 17.9725 26.25 18.61 26.25 19.3892V24.3333C26.25 25.1125 25.6125 25.75 24.8333 25.75C11.5308 25.75 0.75 14.9692 0.75 1.66667C0.75 0.8875 1.3875 0.25 2.16667 0.25H7.125C7.90417 0.25 8.54167 0.8875 8.54167 1.66667C8.54167 3.4375 8.825 5.1375 9.34917 6.72417C9.505 7.22 9.39167 7.7725 8.995 8.16917L5.87833 11.2858Z" fill="white"/>
</svg>
