<?xml version="1.0" encoding="utf-8"?>
<!-- Generator: Adobe Illustrator 26.0.3, SVG Export Plug-In . SVG Version: 6.00 Build 0)  -->
<svg version="1.1" id="Layer_1" xmlns="http://www.w3.org/2000/svg" xmlns:xlink="http://www.w3.org/1999/xlink" x="0px" y="0px"
	 viewBox="0 0 1200 425" style="enable-background:new 0 0 1200 425;" xml:space="preserve">
<style type="text/css">
	.st0{fill:#1D252C;}
	.st1{fill:url(#SVGID_1_);}
</style>
<g>
	<path class="st0" d="M535.51,194.18c6.4-6.4,9.59-15.4,9.59-27.02c0-11.61-3.2-20.7-9.59-27.26c-6.39-6.55-15.45-9.83-27.18-9.83
		H492.5v73.69h15.82C520.05,203.77,529.11,200.58,535.51,194.18 M540.06,118.09c8.9,4.58,15.77,11.11,20.62,19.58
		c4.85,8.47,7.27,18.3,7.27,29.49c0,11.19-2.42,20.97-7.27,29.33c-4.85,8.37-11.72,14.84-20.62,19.42
		c-8.9,4.58-19.21,6.87-30.93,6.87h-39.01V111.22h39.01C520.85,111.22,531.16,113.51,540.06,118.09"/>
	<rect x="580.74" y="111.22" class="st0" width="22.38" height="111.58"/>
	<path class="st0" d="M698.88,144.79c-2.56-4.69-6.07-8.26-10.55-10.71c-4.47-2.45-9.7-3.68-15.66-3.68
		c-6.61,0-12.47,1.49-17.58,4.47c-5.11,2.98-9.11,7.25-11.99,12.79c-2.88,5.54-4.31,11.94-4.31,19.19c0,7.46,1.46,13.96,4.4,19.5
		c2.93,5.54,7,9.81,12.23,12.79c5.22,2.98,11.3,4.47,18.22,4.47c8.53,0,15.51-2.26,20.94-6.79c5.43-4.53,9-10.84,10.71-18.95H666.9
		v-17.1h60.43v19.5c-1.49,7.78-4.69,14.97-9.59,21.58c-4.9,6.61-11.22,11.91-18.94,15.91c-7.73,4-16.38,5.99-25.98,5.99
		c-10.76,0-20.49-2.42-29.17-7.27c-8.68-4.85-15.51-11.59-20.46-20.22c-4.96-8.63-7.43-18.44-7.43-29.41
		c0-10.98,2.48-20.81,7.43-29.49c4.95-8.68,11.78-15.45,20.46-20.3c8.68-4.85,18.36-7.27,29.02-7.27c12.57,0,23.5,3.07,32.77,9.19
		c9.27,6.13,15.66,14.73,19.18,25.82H698.88z"/>
	<rect x="739.96" y="111.22" class="st0" width="22.38" height="111.58"/>
	<polygon class="st0" points="856.33,111.22 856.33,129.28 826.6,129.28 826.6,222.8 804.22,222.8 804.22,129.28 774.49,129.28 
		774.49,111.22 	"/>
	<path class="st0" d="M912.64,183.63l-16.14-46.68l-16.15,46.68H912.64z M918.72,201.53h-44.44l-7.36,21.26h-23.5l40.12-111.74
		h26.06l40.12,111.74h-23.66L918.72,201.53z"/>
	<polygon class="st0" points="983.14,205.05 1019.91,205.05 1019.91,222.8 960.76,222.8 960.76,111.22 983.14,111.22 	"/>
	<path class="st0" d="M524,295.31c2.98-2.82,4.47-6.79,4.47-11.91c0-10.87-6.07-16.3-18.22-16.3H492.5v32.45h17.75
		C516.43,299.54,521.01,298.13,524,295.31 M547.26,300.18c-2.83,5.22-7.25,9.43-13.27,12.63c-6.02,3.2-13.62,4.8-22.78,4.8h-18.7
		v42.84h-22.38V248.87h41.08c8.63,0,15.99,1.49,22.06,4.48c6.07,2.98,10.63,7.09,13.67,12.31c3.04,5.22,4.56,11.14,4.56,17.74
		C551.49,289.37,550.08,294.97,547.26,300.18"/>
	<path class="st0" d="M632.86,337.03c5.11-3.04,9.11-7.38,11.99-13.03c2.88-5.65,4.31-12.2,4.31-19.66c0-7.46-1.44-13.99-4.31-19.58
		c-2.88-5.6-6.88-9.88-11.99-12.87c-5.12-2.98-11.03-4.47-17.75-4.47c-6.72,0-12.66,1.49-17.82,4.47
		c-5.17,2.99-9.19,7.27-12.07,12.87c-2.88,5.59-4.32,12.12-4.32,19.58c0,7.46,1.44,14.01,4.32,19.66c2.88,5.65,6.9,9.99,12.07,13.03
		c5.17,3.03,11.11,4.55,17.82,4.55C621.82,341.59,627.74,340.07,632.86,337.03 M586.34,354.22c-8.74-4.9-15.67-11.7-20.78-20.38
		c-5.11-8.68-7.67-18.52-7.67-29.49c0-10.87,2.56-20.65,7.67-29.34c5.11-8.68,12.04-15.48,20.78-20.38
		c8.74-4.9,18.33-7.36,28.77-7.36c10.55,0,20.17,2.45,28.85,7.36c8.68,4.9,15.56,11.7,20.62,20.38c5.06,8.69,7.59,18.46,7.59,29.34
		c0,10.98-2.53,20.81-7.59,29.49c-5.06,8.69-11.96,15.48-20.7,20.38c-8.74,4.9-18.33,7.35-28.78,7.35
		C604.67,361.57,595.08,359.12,586.34,354.22"/>
	<polygon class="st0" points="707.19,342.71 743.96,342.71 743.96,360.45 684.81,360.45 684.81,248.87 707.19,248.87 	"/>
	<polygon class="st0" points="827.58,248.87 789.85,321.61 789.85,360.45 767.47,360.45 767.47,321.61 729.58,248.87 754.84,248.87 
		778.82,299.87 802.64,248.87 	"/>
	<path class="st0" d="M906.88,282.44c-2.56-4.69-6.08-8.26-10.55-10.71c-4.47-2.45-9.7-3.68-15.67-3.68
		c-6.61,0-12.47,1.49-17.58,4.47c-5.12,2.98-9.11,7.25-11.99,12.79c-2.88,5.54-4.32,11.94-4.32,19.19c0,7.46,1.46,13.96,4.39,19.5
		c2.93,5.54,7.01,9.81,12.23,12.79c5.22,2.98,11.3,4.47,18.23,4.47c8.52,0,15.5-2.26,20.94-6.79c5.44-4.53,9-10.84,10.71-18.95
		h-38.37v-17.1h60.43v19.5c-1.49,7.78-4.69,14.97-9.59,21.58c-4.9,6.61-11.22,11.91-18.95,15.91c-7.73,4-16.38,5.99-25.97,5.99
		c-10.77,0-20.49-2.42-29.17-7.27c-8.69-4.85-15.51-11.59-20.46-20.22c-4.96-8.63-7.43-18.44-7.43-29.41
		c0-10.98,2.48-20.81,7.43-29.49c4.95-8.68,11.77-15.45,20.46-20.3c8.68-4.85,18.35-7.27,29.01-7.27c12.57,0,23.5,3.07,32.77,9.19
		c9.27,6.13,15.67,14.73,19.18,25.82H906.88z"/>
	<path class="st0" d="M1021.16,337.03c5.12-3.04,9.11-7.38,11.99-13.03c2.88-5.65,4.32-12.2,4.32-19.66
		c0-7.46-1.44-13.99-4.32-19.58c-2.87-5.6-6.87-9.88-11.99-12.87c-5.12-2.98-11.03-4.47-17.74-4.47c-6.72,0-12.66,1.49-17.82,4.47
		c-5.17,2.99-9.2,7.27-12.07,12.87c-2.88,5.59-4.31,12.12-4.31,19.58c0,7.46,1.44,14.01,4.31,19.66c2.88,5.65,6.9,9.99,12.07,13.03
		c5.17,3.03,11.11,4.55,17.82,4.55C1010.14,341.59,1016.05,340.07,1021.16,337.03 M974.65,354.22c-8.74-4.9-15.67-11.7-20.78-20.38
		c-5.12-8.68-7.68-18.52-7.68-29.49c0-10.87,2.56-20.65,7.68-29.34c5.12-8.68,12.04-15.48,20.78-20.38
		c8.74-4.9,18.33-7.36,28.77-7.36c10.55,0,20.16,2.45,28.85,7.36c8.68,4.9,15.56,11.7,20.62,20.38c5.06,8.69,7.59,18.46,7.59,29.34
		c0,10.98-2.53,20.81-7.59,29.49c-5.07,8.69-11.97,15.48-20.7,20.38c-8.74,4.9-18.34,7.35-28.78,7.35
		C992.98,361.57,983.39,359.12,974.65,354.22"/>
	<polygon class="st0" points="1168.55,360.45 1146.17,360.45 1095.5,283.88 1095.5,360.45 1073.12,360.45 1073.12,248.71 
		1095.5,248.71 1146.17,325.44 1146.17,248.71 1168.55,248.71 	"/>
</g>
<rect x="82.32" y="125.18" class="st0" width="49.04" height="272.5"/>
<path class="st0" d="M397.54,237.14c0-88.66-71.88-160.54-160.54-160.54H131.35v48.58H237c61.71,0,111.73,50.02,111.73,111.73
	c0,61.71-50.02,111.73-111.73,111.73h-52.82v49.04H237C325.66,397.68,397.54,325.8,397.54,237.14"/>
<path class="st0" d="M233.94,185.91h-49.76v99.53h49.76c27.48,0,49.76-22.28,49.76-49.76S261.43,185.91,233.94,185.91"/>
<linearGradient id="SVGID_1_" gradientUnits="userSpaceOnUse" x1="31.4495" y1="27.3196" x2="104.1059" y2="99.976">
	<stop  offset="0.1" style="stop-color:#1CD6C7"/>
	<stop  offset="0.5" style="stop-color:#05ABFF"/>
	<stop  offset="0.9" style="stop-color:#0A6AFF"/>
</linearGradient>
<rect x="31.45" y="27.32" class="st1" width="72.66" height="72.66"/>
</svg>
